<svg width="32" height="33" viewBox="0 0 32 33" fill="none" xmlns="http://www.w3.org/2000/svg">
<path d="M19.7236 32.4515C33.7914 21.6407 29.2294 9.76129 29.2294 9.76129C29.2294 9.76129 33.2254 4.66912 31.6194 0.208C31.6194 0.208 29.9614 3.3241 27.2095 3.3241C24.5495 3.3241 22.9756 0.208 17.6057 0.208C5.66189 0.208 0 11.4794 0 11.4794C10.7638 3.46459 18.1177 9.14406 18.1177 9.14406C13.2577 12.3177 2.94994 27.5159 2.94994 27.5159C11.9358 18.877 15.8137 16.6084 15.8137 16.6084C13.4817 18.7641 6.98387 29.3285 6.98387 29.3285C12.1838 23.3888 22.5196 15.1068 22.5196 15.1068C25.4835 24.2594 19.7236 32.4515 19.7236 32.4515Z" fill="#EF6703"/>
</svg>
