<svg width="17" height="16" viewBox="0 0 17 16" fill="none" xmlns="http://www.w3.org/2000/svg">
<path d="M16.3795 15.4739L14.4848 10.5067C14.468 10.4628 14.4382 10.4249 14.3995 10.3982C14.3607 10.3715 14.3147 10.3572 14.2676 10.3572H10.6817C10.7036 10.3215 10.7254 10.2868 10.7473 10.2509C12.1271 7.96656 12.8215 5.96826 12.8115 4.31236C12.8117 3.16884 12.3576 2.07209 11.5492 1.26336C10.7407 0.454639 9.64411 0.000193794 8.5006 6.19671e-08C7.35708 -0.00019367 6.26033 0.45388 5.45161 1.26233C4.64288 2.07078 4.18844 3.16738 4.18824 4.31089C4.17828 5.96826 4.87263 7.96682 6.25241 10.2509C6.27433 10.2872 6.29611 10.3219 6.31802 10.3572H2.73209C2.68501 10.3572 2.63904 10.3715 2.60027 10.3982C2.5615 10.4249 2.53174 10.4628 2.51494 10.5067L0.620501 15.4739C0.607002 15.5091 0.602275 15.5471 0.606729 15.5845C0.611182 15.6219 0.624681 15.6577 0.646061 15.6887C0.66744 15.7198 0.696056 15.7452 0.729436 15.7627C0.762816 15.7802 0.799957 15.7893 0.837649 15.7892H16.1624C16.2 15.7893 16.2372 15.7802 16.2706 15.7627C16.3039 15.7452 16.3326 15.7198 16.3539 15.6887C16.3753 15.6577 16.3888 15.6219 16.3933 15.5845C16.3977 15.5471 16.393 15.5091 16.3795 15.4739ZM4.65322 4.31129C4.65331 3.80613 4.75289 3.30592 4.94629 2.83924C5.13969 2.37256 5.42312 1.94855 5.78039 1.5914C6.13765 1.23426 6.56177 0.950979 7.02851 0.75774C7.49526 0.564502 7.9955 0.465088 8.50066 0.465176C9.00583 0.465263 9.50603 0.564849 9.97271 0.758249C10.4394 0.951648 10.8634 1.23507 11.2206 1.59234C11.5777 1.94961 11.861 2.37372 12.0542 2.84047C12.2475 3.30722 12.3469 3.80745 12.3468 4.31262C12.3667 7.61407 9.28014 11.686 8.5 12.6624C7.71986 11.6864 4.63316 7.61553 4.65322 4.31129ZM8.32296 13.1804C8.34478 13.206 8.37191 13.2266 8.40248 13.2408C8.43305 13.2549 8.46632 13.2622 8.5 13.2622C8.53368 13.2622 8.56695 13.2549 8.59752 13.2408C8.62809 13.2266 8.65522 13.206 8.67704 13.1804C9.29414 12.4286 9.86623 11.6411 10.3903 10.8218H14.1073L14.4048 11.602L7.1412 14.1854L4.55215 10.8214H6.60941C7.13358 11.6408 7.70576 12.4285 8.32296 13.1804ZM7.13309 14.6812H7.13442L11.4677 13.1405L13.1484 15.3244H5.32578L7.13309 14.6812ZM2.89239 10.8214H3.96552L6.68047 14.3491L3.93882 15.3242H1.17499L2.89239 10.8214ZM13.7356 15.3244L11.9282 12.976L14.5711 12.0361L15.8253 15.3244H13.7356Z" fill="#CCCCCC"/>
</svg>
